<?xml version="1.0" encoding="utf-8"?>
<!-- Generator: Adobe Illustrator 15.0.2, SVG Export Plug-In . SVG Version: 6.00 Build 0)  -->
<!DOCTYPE svg PUBLIC "-//W3C//DTD SVG 1.1//EN" "http://www.w3.org/Graphics/SVG/1.1/DTD/svg11.dtd">
<svg version="1.1" id="Layer_1" xmlns="http://www.w3.org/2000/svg" xmlns:xlink="http://www.w3.org/1999/xlink" x="0px" y="0px"
	 width="660px" height="140px" viewBox="0 0 660 140" enable-background="new 0 0 660 140" xml:space="preserve">
<path fill="#3C5A98" d="M660,128c0,6.627-5.373,12-12,12H12c-6.627,0-12-5.373-12-12V12C0,5.373,5.373,0,12,0h636
	c6.627,0,12,5.373,12,12V128z"/>
<g>
	<path fill="#F1F1F1" d="M228.726,58.837c-1.347-0.979-3.07-1.468-5.168-1.468c-0.851,0-1.688,0.085-2.51,0.255
		c-0.823,0.17-1.553,0.454-2.191,0.851c-0.638,0.397-1.149,0.929-1.532,1.595c-0.383,0.667-0.574,1.496-0.574,2.488
		c0,0.936,0.276,1.695,0.83,2.276c0.553,0.582,1.29,1.057,2.212,1.425c0.921,0.369,1.964,0.674,3.127,0.915
		c1.163,0.242,2.346,0.504,3.552,0.787c1.205,0.284,2.389,0.617,3.552,1c1.163,0.383,2.205,0.9,3.126,1.553
		c0.921,0.652,1.659,1.475,2.212,2.467c0.553,0.993,0.83,2.24,0.83,3.744c0,1.615-0.362,2.998-1.085,4.146
		c-0.723,1.149-1.652,2.085-2.787,2.809c-1.134,0.723-2.403,1.248-3.807,1.574c-1.404,0.325-2.801,0.488-4.19,0.488
		c-1.702,0-3.312-0.213-4.828-0.638c-1.518-0.425-2.851-1.07-3.999-1.936c-1.148-0.864-2.057-1.971-2.723-3.318
		c-0.667-1.347-1-2.942-1-4.786h3.829c0,1.277,0.248,2.376,0.744,3.297c0.496,0.922,1.149,1.681,1.957,2.276
		s1.751,1.036,2.829,1.319c1.078,0.283,2.184,0.425,3.318,0.425c0.907,0,1.822-0.085,2.744-0.255
		c0.921-0.17,1.751-0.461,2.489-0.873c0.737-0.41,1.333-0.971,1.787-1.68c0.453-0.709,0.681-1.617,0.681-2.723
		c0-1.049-0.276-1.9-0.83-2.553s-1.291-1.184-2.212-1.596c-0.922-0.41-1.964-0.744-3.127-0.999
		c-1.163-0.255-2.347-0.517-3.552-0.787c-1.206-0.269-2.39-0.581-3.552-0.936c-1.163-0.354-2.206-0.822-3.126-1.404
		c-0.922-0.581-1.659-1.333-2.212-2.254c-0.553-0.921-0.83-2.077-0.83-3.467c0-1.531,0.312-2.857,0.936-3.978
		c0.624-1.12,1.453-2.042,2.489-2.765c1.035-0.723,2.212-1.262,3.531-1.617c1.319-0.354,2.673-0.532,4.062-0.532
		c1.56,0,3.006,0.185,4.339,0.553c1.333,0.369,2.502,0.951,3.51,1.744c1.006,0.794,1.801,1.794,2.382,2.999
		c0.581,1.206,0.9,2.645,0.957,4.318h-3.829C230.859,61.397,230.073,59.816,228.726,58.837z"/>
	<path fill="#F1F1F1" d="M240.701,59.114v-4.424h3.616v4.424H240.701z M244.317,63.07v21.994h-3.616V63.07H244.317z"/>
	<path fill="#F1F1F1" d="M266.438,91.275c-1.645,1.786-4.226,2.68-7.743,2.68c-1.021,0-2.063-0.113-3.126-0.34
		c-1.063-0.229-2.028-0.596-2.893-1.106c-0.865-0.511-1.581-1.177-2.148-1.999c-0.568-0.823-0.879-1.83-0.936-3.021h3.616
		c0.028,0.652,0.234,1.205,0.617,1.66c0.383,0.453,0.851,0.822,1.404,1.105c0.553,0.283,1.155,0.489,1.808,0.617
		c0.652,0.127,1.276,0.191,1.872,0.191c1.191,0,2.198-0.207,3.021-0.617c0.822-0.411,1.503-0.979,2.042-1.701
		c0.539-0.724,0.929-1.596,1.17-2.617c0.241-1.021,0.361-2.141,0.361-3.36V81.32h-0.085c-0.624,1.361-1.567,2.361-2.829,2.999
		c-1.262,0.638-2.602,0.958-4.02,0.958c-1.645,0-3.078-0.299-4.296-0.895c-1.22-0.596-2.241-1.396-3.063-2.402
		c-0.823-1.008-1.44-2.184-1.851-3.531c-0.412-1.348-0.617-2.771-0.617-4.275c0-1.305,0.17-2.645,0.511-4.021
		c0.34-1.375,0.907-2.623,1.702-3.744c0.793-1.12,1.843-2.042,3.148-2.765c1.304-0.723,2.907-1.085,4.807-1.085
		c1.389,0,2.666,0.305,3.829,0.915c1.163,0.61,2.07,1.524,2.723,2.744h0.042V63.07h3.403v20.122
		C268.905,86.793,268.082,89.488,266.438,91.275z M261.822,81.385c0.836-0.496,1.51-1.149,2.021-1.957
		c0.511-0.809,0.886-1.723,1.127-2.744c0.241-1.021,0.362-2.042,0.362-3.062c0-0.965-0.114-1.915-0.34-2.852
		c-0.228-0.935-0.589-1.779-1.085-2.531c-0.497-0.751-1.142-1.354-1.936-1.808c-0.794-0.454-1.759-0.681-2.893-0.681
		c-1.164,0-2.156,0.22-2.978,0.659c-0.823,0.44-1.496,1.028-2.021,1.766c-0.525,0.738-0.908,1.588-1.149,2.552
		c-0.241,0.964-0.361,1.972-0.361,3.021c0,0.993,0.099,1.985,0.297,2.979c0.198,0.992,0.539,1.893,1.021,2.701
		c0.482,0.808,1.12,1.461,1.915,1.957c0.793,0.496,1.787,0.744,2.978,0.744C259.971,82.129,260.985,81.881,261.822,81.385z"/>
	<path fill="#F1F1F1" d="M277.753,63.07v3.488h0.085c1.503-2.666,3.885-3.999,7.147-3.999c1.446,0,2.651,0.199,3.616,0.596
		c0.964,0.397,1.745,0.951,2.34,1.659c0.596,0.709,1.014,1.553,1.255,2.531c0.241,0.979,0.362,2.063,0.362,3.254v14.465h-3.616
		v-14.89c0-1.361-0.397-2.439-1.191-3.233c-0.794-0.793-1.886-1.191-3.276-1.191c-1.106,0-2.063,0.17-2.871,0.51
		c-0.809,0.34-1.482,0.823-2.021,1.446c-0.539,0.625-0.943,1.355-1.212,2.191c-0.27,0.836-0.404,1.751-0.404,2.745v12.422h-3.616
		V63.07H277.753z"/>
	<path fill="#F1F1F1" d="M310.042,59.114v-4.424h3.616v4.424H310.042z M313.658,63.07v21.994h-3.616V63.07H313.658z"/>
	<path fill="#F1F1F1" d="M322.676,63.07v3.488h0.085c1.503-2.666,3.885-3.999,7.147-3.999c1.446,0,2.651,0.199,3.616,0.596
		c0.964,0.397,1.744,0.951,2.34,1.659c0.596,0.709,1.014,1.553,1.255,2.531s0.362,2.063,0.362,3.254v14.465h-3.617v-14.89
		c0-1.361-0.396-2.439-1.19-3.233c-0.794-0.793-1.886-1.191-3.276-1.191c-1.106,0-2.063,0.17-2.871,0.51
		c-0.809,0.34-1.482,0.823-2.021,1.446c-0.539,0.625-0.943,1.355-1.212,2.191c-0.27,0.836-0.404,1.751-0.404,2.745v12.422h-3.616
		V63.07H322.676z"/>
	<path fill="#F1F1F1" d="M372.703,85.064l-4.467-17.485h-0.084l-4.425,17.485h-3.913l-7.062-21.994h3.999l4.978,17.994h0.085
		l4.424-17.994h3.956l4.595,17.994h0.085l4.936-17.994h3.743l-7.02,21.994H372.703z"/>
	<path fill="#F1F1F1" d="M387.211,59.114v-4.424h3.615v4.424H387.211z M390.826,63.07v21.994h-3.615V63.07H390.826z"/>
	<path fill="#F1F1F1" d="M405.842,63.07v3.19h-4.381v13.655c0,0.426,0.035,0.766,0.105,1.021c0.071,0.256,0.206,0.454,0.404,0.596
		c0.199,0.143,0.475,0.234,0.83,0.276c0.354,0.042,0.814,0.063,1.383,0.063h1.658v3.191h-2.765c-0.936,0-1.737-0.064-2.403-0.191
		c-0.667-0.128-1.206-0.362-1.617-0.703c-0.411-0.34-0.716-0.822-0.914-1.445c-0.199-0.624-0.298-1.447-0.298-2.468V66.261h-3.743
		v-3.19h3.743v-6.594h3.616v6.594H405.842z"/>
	<path fill="#F1F1F1" d="M413.457,54.689v11.614h0.085c0.283-0.681,0.681-1.255,1.19-1.723c0.512-0.468,1.086-0.851,1.724-1.149
		c0.638-0.297,1.304-0.517,1.999-0.659c0.695-0.142,1.368-0.213,2.021-0.213c1.445,0,2.65,0.199,3.615,0.596
		c0.964,0.397,1.744,0.951,2.34,1.659c0.596,0.709,1.014,1.553,1.255,2.531s0.362,2.063,0.362,3.254v14.465h-3.617v-14.89
		c0-1.361-0.396-2.439-1.19-3.233c-0.794-0.793-1.886-1.191-3.276-1.191c-1.105,0-2.062,0.17-2.871,0.51s-1.482,0.823-2.021,1.446
		c-0.539,0.625-0.943,1.355-1.212,2.191c-0.271,0.836-0.404,1.751-0.404,2.745v12.422h-3.616V54.689H413.457z"/>
	<path fill="#F1F1F1" d="M465.867,54.689v3.403h-15.91v9.657h13.953v3.402h-13.953v13.912h-4.041V54.689H465.867z"/>
	<path fill="#F1F1F1" d="M486.627,85.531c-0.937,0-1.681-0.262-2.234-0.786c-0.553-0.524-0.829-1.383-0.829-2.573
		c-0.993,1.19-2.148,2.049-3.467,2.573c-1.319,0.524-2.744,0.786-4.275,0.786c-0.993,0-1.929-0.105-2.808-0.318
		c-0.88-0.213-1.652-0.566-2.318-1.063c-0.667-0.496-1.191-1.134-1.574-1.915c-0.383-0.779-0.574-1.723-0.574-2.828
		c0-1.248,0.213-2.27,0.638-3.062c0.426-0.795,0.985-1.439,1.681-1.937c0.694-0.495,1.488-0.872,2.383-1.127
		c0.893-0.255,1.807-0.468,2.743-0.638c0.993-0.199,1.936-0.348,2.829-0.447s1.68-0.24,2.361-0.426
		c0.68-0.184,1.219-0.453,1.616-0.809c0.397-0.354,0.596-0.871,0.596-1.552c0-0.793-0.149-1.432-0.446-1.914
		c-0.299-0.482-0.682-0.851-1.148-1.106c-0.469-0.255-0.994-0.426-1.574-0.511c-0.582-0.085-1.156-0.127-1.724-0.127
		c-1.531,0-2.808,0.291-3.829,0.872c-1.021,0.582-1.573,1.68-1.658,3.297h-3.616c0.057-1.361,0.341-2.51,0.851-3.446
		c0.511-0.936,1.191-1.694,2.042-2.276c0.851-0.581,1.829-1,2.936-1.255c1.106-0.255,2.269-0.383,3.488-0.383
		c0.993,0,1.978,0.071,2.956,0.213c0.979,0.142,1.865,0.433,2.659,0.872c0.794,0.44,1.433,1.057,1.915,1.851
		c0.481,0.794,0.723,1.829,0.723,3.105v11.315c0,0.852,0.049,1.476,0.148,1.872c0.1,0.397,0.433,0.596,1,0.596
		c0.312,0,0.681-0.07,1.106-0.212v2.807C488.598,85.348,487.732,85.531,486.627,85.531z M481.564,74.45
		c-0.738,0.155-1.511,0.284-2.318,0.383c-0.809,0.1-1.625,0.212-2.446,0.341c-0.823,0.127-1.56,0.333-2.212,0.616
		c-0.653,0.284-1.186,0.688-1.596,1.212c-0.412,0.525-0.617,1.242-0.617,2.148c0,0.596,0.121,1.1,0.361,1.511
		c0.241,0.411,0.554,0.744,0.937,0.999c0.383,0.256,0.836,0.44,1.361,0.554c0.524,0.113,1.056,0.17,1.595,0.17
		c1.191,0,2.213-0.163,3.063-0.489s1.546-0.736,2.085-1.233c0.538-0.496,0.936-1.035,1.19-1.616
		c0.255-0.582,0.384-1.128,0.384-1.639v-3.701C482.896,74.046,482.301,74.295,481.564,74.45z"/>
	<path fill="#F1F1F1" d="M505.727,66.899c-0.907-0.766-2.127-1.148-3.658-1.148c-1.305,0-2.396,0.241-3.275,0.723
		c-0.879,0.482-1.582,1.121-2.105,1.914c-0.525,0.794-0.9,1.709-1.127,2.744c-0.229,1.036-0.341,2.106-0.341,3.212
		c0,1.021,0.12,2.014,0.361,2.978c0.241,0.965,0.616,1.823,1.128,2.573c0.51,0.752,1.176,1.355,1.999,1.809
		c0.822,0.454,1.801,0.681,2.935,0.681c1.787,0,3.184-0.468,4.191-1.403c1.006-0.937,1.623-2.255,1.85-3.957h3.701
		c-0.396,2.723-1.41,4.822-3.041,6.297s-3.85,2.211-6.658,2.211c-1.674,0-3.155-0.27-4.445-0.808
		c-1.291-0.538-2.368-1.304-3.232-2.298c-0.866-0.992-1.518-2.176-1.957-3.552c-0.44-1.375-0.66-2.886-0.66-4.53
		s0.213-3.184,0.639-4.616c0.426-1.432,1.07-2.68,1.936-3.744s1.949-1.9,3.254-2.51s2.822-0.915,4.553-0.915
		c1.247,0,2.417,0.149,3.509,0.447s2.056,0.759,2.894,1.383c0.836,0.624,1.523,1.411,2.062,2.361
		c0.539,0.951,0.879,2.078,1.021,3.382h-3.744C507.23,68.743,506.635,67.665,505.727,66.899z"/>
	<path fill="#F1F1F1" d="M530.996,83.66c-1.646,1.248-3.716,1.871-6.211,1.871c-1.76,0-3.283-0.283-4.574-0.85
		c-1.29-0.567-2.375-1.361-3.254-2.383s-1.539-2.24-1.979-3.658s-0.688-2.963-0.744-4.637c0-1.674,0.256-3.205,0.766-4.595
		c0.511-1.389,1.227-2.595,2.148-3.616s2.014-1.815,3.275-2.382c1.262-0.567,2.645-0.851,4.148-0.851
		c1.957,0,3.58,0.404,4.871,1.212c1.29,0.809,2.325,1.837,3.105,3.084c0.779,1.248,1.318,2.609,1.616,4.084
		c0.298,1.476,0.418,2.879,0.361,4.212h-16.463c-0.028,0.964,0.085,1.879,0.341,2.744c0.254,0.865,0.666,1.631,1.232,2.297
		c0.567,0.666,1.291,1.198,2.17,1.595c0.879,0.397,1.914,0.596,3.105,0.596c1.531,0,2.787-0.354,3.766-1.063
		c0.978-0.709,1.623-1.787,1.936-3.232h3.573C533.704,80.555,532.641,82.412,530.996,83.66z M530.124,69.537
		c-0.327-0.766-0.766-1.425-1.319-1.979c-0.553-0.553-1.205-0.992-1.957-1.318c-0.752-0.326-1.581-0.489-2.488-0.489
		c-0.936,0-1.78,0.164-2.531,0.489c-0.752,0.326-1.396,0.773-1.936,1.34c-0.539,0.568-0.965,1.227-1.276,1.978
		c-0.312,0.752-0.497,1.553-0.553,2.403h12.635C530.641,71.11,530.449,70.303,530.124,69.537z"/>
	<path fill="#F1F1F1" d="M542.013,54.689v11.359h0.086c0.595-1.219,1.531-2.106,2.808-2.659c1.275-0.553,2.68-0.83,4.211-0.83
		c1.702,0,3.184,0.312,4.445,0.936c1.262,0.624,2.312,1.468,3.148,2.531c0.836,1.063,1.468,2.291,1.894,3.68
		c0.425,1.39,0.638,2.866,0.638,4.424c0,1.561-0.206,3.035-0.617,4.424c-0.411,1.391-1.035,2.604-1.871,3.638
		c-0.837,1.036-1.887,1.851-3.148,2.446c-1.263,0.596-2.729,0.893-4.403,0.893c-0.539,0-1.142-0.057-1.808-0.17
		c-0.667-0.113-1.326-0.297-1.979-0.553c-0.652-0.255-1.27-0.602-1.851-1.042c-0.581-0.439-1.07-0.985-1.467-1.638h-0.086v2.936
		h-3.615V54.689H542.013z M555.01,70.877c-0.271-0.979-0.681-1.851-1.234-2.617c-0.553-0.766-1.262-1.375-2.127-1.829
		s-1.879-0.681-3.041-0.681c-1.22,0-2.255,0.241-3.105,0.723c-0.852,0.482-1.547,1.113-2.085,1.893
		c-0.539,0.78-0.93,1.667-1.17,2.659c-0.241,0.993-0.361,2-0.361,3.021c0,1.078,0.127,2.12,0.383,3.127
		c0.255,1.007,0.659,1.894,1.212,2.659c0.554,0.766,1.27,1.382,2.148,1.85c0.879,0.469,1.942,0.702,3.19,0.702
		s2.29-0.241,3.127-0.724c0.836-0.481,1.511-1.119,2.021-1.914c0.511-0.793,0.879-1.701,1.106-2.723
		c0.227-1.021,0.34-2.07,0.34-3.148C555.413,72.854,555.278,71.855,555.01,70.877z"/>
	<path fill="#F1F1F1" d="M562.985,69.558c0.453-1.404,1.134-2.623,2.042-3.658c0.907-1.035,2.027-1.851,3.361-2.446
		c1.332-0.596,2.864-0.894,4.594-0.894c1.759,0,3.297,0.298,4.616,0.894c1.318,0.596,2.432,1.411,3.339,2.446
		c0.907,1.036,1.588,2.254,2.042,3.658c0.454,1.403,0.681,2.914,0.681,4.53c0,1.617-0.227,3.121-0.681,4.51
		c-0.454,1.391-1.135,2.603-2.042,3.637c-0.907,1.036-2.021,1.845-3.339,2.426c-1.319,0.58-2.857,0.871-4.616,0.871
		c-1.729,0-3.262-0.291-4.594-0.871c-1.334-0.581-2.454-1.39-3.361-2.426c-0.908-1.034-1.589-2.246-2.042-3.637
		c-0.454-1.389-0.681-2.893-0.681-4.51C562.305,72.472,562.531,70.961,562.985,69.558z M566.665,77.641
		c0.354,1.035,0.844,1.9,1.468,2.595c0.624,0.695,1.354,1.228,2.191,1.596c0.836,0.368,1.723,0.553,2.658,0.553
		c0.937,0,1.822-0.185,2.659-0.553c0.836-0.368,1.566-0.9,2.19-1.596c0.624-0.694,1.113-1.56,1.468-2.595s0.532-2.219,0.532-3.553
		c0-1.332-0.178-2.516-0.532-3.552c-0.354-1.035-0.844-1.907-1.468-2.616c-0.624-0.708-1.354-1.248-2.19-1.617
		c-0.837-0.368-1.723-0.553-2.659-0.553c-0.936,0-1.822,0.185-2.658,0.553c-0.837,0.369-1.567,0.908-2.191,1.617
		c-0.624,0.709-1.113,1.582-1.468,2.616c-0.354,1.036-0.531,2.22-0.531,3.552C566.134,75.422,566.311,76.605,566.665,77.641z"/>
	<path fill="#F1F1F1" d="M587.403,69.558c0.453-1.404,1.134-2.623,2.042-3.658c0.907-1.035,2.027-1.851,3.361-2.446
		c1.332-0.596,2.864-0.894,4.594-0.894c1.759,0,3.297,0.298,4.616,0.894c1.318,0.596,2.432,1.411,3.339,2.446
		c0.907,1.036,1.588,2.254,2.042,3.658c0.454,1.403,0.681,2.914,0.681,4.53c0,1.617-0.227,3.121-0.681,4.51
		c-0.454,1.391-1.135,2.603-2.042,3.637c-0.907,1.036-2.021,1.845-3.339,2.426c-1.319,0.58-2.857,0.871-4.616,0.871
		c-1.729,0-3.262-0.291-4.594-0.871c-1.334-0.581-2.454-1.39-3.361-2.426c-0.908-1.034-1.589-2.246-2.042-3.637
		c-0.454-1.389-0.681-2.893-0.681-4.51C586.723,72.472,586.949,70.961,587.403,69.558z M591.083,77.641
		c0.354,1.035,0.844,1.9,1.468,2.595c0.624,0.695,1.354,1.228,2.191,1.596c0.836,0.368,1.723,0.553,2.658,0.553
		c0.937,0,1.822-0.185,2.659-0.553c0.836-0.368,1.566-0.9,2.19-1.596c0.624-0.694,1.113-1.56,1.468-2.595s0.532-2.219,0.532-3.553
		c0-1.332-0.178-2.516-0.532-3.552c-0.354-1.035-0.844-1.907-1.468-2.616c-0.624-0.708-1.354-1.248-2.19-1.617
		c-0.837-0.368-1.723-0.553-2.659-0.553c-0.936,0-1.822,0.185-2.658,0.553c-0.837,0.369-1.567,0.908-2.191,1.617
		c-0.624,0.709-1.113,1.582-1.468,2.616c-0.354,1.036-0.531,2.22-0.531,3.552C590.552,75.422,590.729,76.605,591.083,77.641z"/>
	<path fill="#F1F1F1" d="M616.161,54.689v17.995L626.2,63.07h4.85l-8.721,7.998l9.359,13.996h-4.595l-7.529-11.486l-3.403,3.148
		v8.338h-3.616V54.689H616.161z"/>
</g>
<path fill="#FFFFFF" d="M71.112,101.625V72.573h9.779l1.463-11.322H71.112v-7.229c0-3.279,0.913-5.512,5.626-5.512l6.012-0.003
	V38.381c-1.04-0.139-4.608-0.446-8.76-0.446c-8.668,0-14.603,5.275-14.603,14.966v8.35h-9.803v11.322h9.803v29.052H71.112z"/>
</svg>
