<?xml version="1.0" encoding="utf-8"?>
<!-- Generator: Adobe Illustrator 15.0.2, SVG Export Plug-In . SVG Version: 6.00 Build 0)  -->
<!DOCTYPE svg PUBLIC "-//W3C//DTD SVG 1.1//EN" "http://www.w3.org/Graphics/SVG/1.1/DTD/svg11.dtd">
<svg version="1.1" id="Layer_1" xmlns="http://www.w3.org/2000/svg" xmlns:xlink="http://www.w3.org/1999/xlink" x="0px" y="0px"
	 width="660px" height="140px" viewBox="0 0 660 140" enable-background="new 0 0 660 140" xml:space="preserve">
<path fill="#E54C3E" d="M660,128c0,6.627-5.373,12-12,12H12c-6.627,0-12-5.373-12-12V12C0,5.373,5.373,0,12,0h636
	c6.627,0,12,5.373,12,12V128z"/>
<g>
	<path fill="#F1F1F1" d="M276.726,58.837c-1.347-0.979-3.07-1.468-5.168-1.468c-0.851,0-1.688,0.085-2.51,0.255
		c-0.823,0.17-1.553,0.454-2.191,0.851c-0.638,0.397-1.149,0.929-1.532,1.595c-0.383,0.667-0.574,1.496-0.574,2.488
		c0,0.936,0.276,1.695,0.83,2.276c0.553,0.582,1.29,1.057,2.212,1.425c0.921,0.369,1.964,0.674,3.127,0.915
		c1.163,0.242,2.346,0.504,3.552,0.787c1.205,0.284,2.389,0.617,3.552,1c1.163,0.383,2.205,0.9,3.126,1.553
		c0.921,0.652,1.659,1.475,2.212,2.467c0.553,0.993,0.83,2.24,0.83,3.744c0,1.615-0.362,2.998-1.085,4.146
		c-0.723,1.149-1.652,2.085-2.787,2.809c-1.134,0.723-2.403,1.248-3.807,1.574c-1.404,0.325-2.801,0.488-4.19,0.488
		c-1.702,0-3.312-0.213-4.828-0.638c-1.518-0.425-2.851-1.07-3.999-1.936c-1.148-0.864-2.057-1.971-2.723-3.318
		c-0.667-1.347-1-2.942-1-4.786h3.829c0,1.277,0.248,2.376,0.744,3.297c0.496,0.922,1.149,1.681,1.957,2.276
		s1.751,1.036,2.829,1.319c1.078,0.283,2.184,0.425,3.318,0.425c0.907,0,1.822-0.085,2.744-0.255
		c0.921-0.17,1.751-0.461,2.489-0.873c0.737-0.41,1.333-0.971,1.787-1.68c0.453-0.709,0.681-1.617,0.681-2.723
		c0-1.049-0.276-1.9-0.83-2.553s-1.291-1.184-2.212-1.596c-0.922-0.41-1.964-0.744-3.127-0.999
		c-1.163-0.255-2.347-0.517-3.552-0.787c-1.206-0.269-2.39-0.581-3.552-0.936c-1.163-0.354-2.206-0.822-3.126-1.404
		c-0.922-0.581-1.659-1.333-2.212-2.254c-0.553-0.921-0.83-2.077-0.83-3.467c0-1.531,0.312-2.857,0.936-3.978
		c0.624-1.12,1.453-2.042,2.489-2.765c1.035-0.723,2.212-1.262,3.531-1.617c1.319-0.354,2.673-0.532,4.062-0.532
		c1.56,0,3.006,0.185,4.339,0.553c1.333,0.369,2.502,0.951,3.51,1.744c1.006,0.794,1.801,1.794,2.382,2.999
		c0.581,1.206,0.9,2.645,0.957,4.318h-3.829C278.859,61.397,278.073,59.816,276.726,58.837z"/>
	<path fill="#F1F1F1" d="M288.701,59.114v-4.424h3.616v4.424H288.701z M292.317,63.07v21.994h-3.616V63.07H292.317z"/>
	<path fill="#F1F1F1" d="M314.438,91.275c-1.645,1.786-4.226,2.68-7.743,2.68c-1.021,0-2.063-0.113-3.126-0.34
		c-1.063-0.229-2.028-0.596-2.893-1.106c-0.865-0.511-1.581-1.177-2.148-1.999c-0.568-0.823-0.879-1.83-0.936-3.021h3.616
		c0.028,0.652,0.234,1.205,0.617,1.66c0.383,0.453,0.851,0.822,1.404,1.105c0.553,0.283,1.155,0.489,1.808,0.617
		c0.652,0.127,1.276,0.191,1.872,0.191c1.191,0,2.198-0.207,3.021-0.617c0.822-0.411,1.503-0.979,2.042-1.701
		c0.539-0.724,0.929-1.596,1.17-2.617c0.241-1.021,0.361-2.141,0.361-3.36V81.32h-0.085c-0.624,1.361-1.567,2.361-2.829,2.999
		c-1.262,0.638-2.602,0.958-4.02,0.958c-1.645,0-3.078-0.299-4.296-0.895c-1.22-0.596-2.241-1.396-3.063-2.402
		c-0.823-1.008-1.44-2.184-1.851-3.531c-0.412-1.348-0.617-2.771-0.617-4.275c0-1.305,0.17-2.645,0.511-4.021
		c0.34-1.375,0.907-2.623,1.702-3.744c0.793-1.12,1.843-2.042,3.148-2.765c1.304-0.723,2.907-1.085,4.807-1.085
		c1.389,0,2.666,0.305,3.829,0.915c1.163,0.61,2.07,1.524,2.723,2.744h0.042V63.07h3.403v20.122
		C316.905,86.793,316.082,89.488,314.438,91.275z M309.822,81.385c0.836-0.496,1.51-1.149,2.021-1.957
		c0.511-0.809,0.886-1.723,1.127-2.744c0.241-1.021,0.362-2.042,0.362-3.062c0-0.965-0.114-1.915-0.34-2.852
		c-0.228-0.935-0.589-1.779-1.085-2.531c-0.497-0.751-1.142-1.354-1.936-1.808c-0.794-0.454-1.759-0.681-2.893-0.681
		c-1.164,0-2.156,0.22-2.978,0.659c-0.823,0.44-1.496,1.028-2.021,1.766c-0.525,0.738-0.908,1.588-1.149,2.552
		c-0.241,0.964-0.361,1.972-0.361,3.021c0,0.993,0.099,1.985,0.297,2.979c0.198,0.992,0.539,1.893,1.021,2.701
		c0.482,0.808,1.12,1.461,1.915,1.957c0.793,0.496,1.787,0.744,2.978,0.744C307.971,82.129,308.985,81.881,309.822,81.385z"/>
	<path fill="#F1F1F1" d="M325.753,63.07v3.488h0.085c1.503-2.666,3.885-3.999,7.146-3.999c1.447,0,2.652,0.199,3.616,0.596
		c0.964,0.397,1.745,0.951,2.34,1.659c0.596,0.709,1.014,1.553,1.255,2.531c0.24,0.979,0.361,2.063,0.361,3.254v14.465h-3.615
		v-14.89c0-1.361-0.398-2.439-1.191-3.233c-0.795-0.793-1.887-1.191-3.275-1.191c-1.106,0-2.063,0.17-2.872,0.51
		c-0.809,0.34-1.482,0.823-2.021,1.446c-0.539,0.625-0.943,1.355-1.212,2.191c-0.27,0.836-0.404,1.751-0.404,2.745v12.422h-3.616
		V63.07H325.753z"/>
	<path fill="#F1F1F1" d="M358.042,59.114v-4.424h3.616v4.424H358.042z M361.658,63.07v21.994h-3.616V63.07H361.658z"/>
	<path fill="#F1F1F1" d="M370.676,63.07v3.488h0.085c1.503-2.666,3.886-3.999,7.147-3.999c1.445,0,2.65,0.199,3.615,0.596
		c0.964,0.397,1.744,0.951,2.34,1.659c0.596,0.709,1.014,1.553,1.255,2.531s0.362,2.063,0.362,3.254v14.465h-3.617v-14.89
		c0-1.361-0.396-2.439-1.19-3.233c-0.794-0.793-1.886-1.191-3.276-1.191c-1.105,0-2.062,0.17-2.871,0.51s-1.482,0.823-2.021,1.446
		c-0.539,0.625-0.943,1.355-1.212,2.191c-0.271,0.836-0.404,1.751-0.404,2.745v12.422h-3.616V63.07H370.676z"/>
	<path fill="#F1F1F1" d="M420.703,85.064l-4.467-17.485h-0.084l-4.425,17.485h-3.913l-7.062-21.994h3.999l4.978,17.994h0.085
		l4.424-17.994h3.956l4.595,17.994h0.085l4.936-17.994h3.743l-7.02,21.994H420.703z"/>
	<path fill="#F1F1F1" d="M435.211,59.114v-4.424h3.615v4.424H435.211z M438.826,63.07v21.994h-3.615V63.07H438.826z"/>
	<path fill="#F1F1F1" d="M453.842,63.07v3.19h-4.381v13.655c0,0.426,0.035,0.766,0.105,1.021c0.071,0.256,0.206,0.454,0.404,0.596
		c0.199,0.143,0.475,0.234,0.83,0.276c0.354,0.042,0.814,0.063,1.383,0.063h1.658v3.191h-2.765c-0.936,0-1.737-0.064-2.403-0.191
		c-0.667-0.128-1.206-0.362-1.617-0.703c-0.411-0.34-0.716-0.822-0.914-1.445c-0.199-0.624-0.298-1.447-0.298-2.468V66.261h-3.743
		v-3.19h3.743v-6.594h3.616v6.594H453.842z"/>
	<path fill="#F1F1F1" d="M461.457,54.689v11.614h0.085c0.283-0.681,0.681-1.255,1.19-1.723c0.512-0.468,1.086-0.851,1.724-1.149
		c0.638-0.297,1.304-0.517,1.999-0.659c0.695-0.142,1.368-0.213,2.021-0.213c1.445,0,2.65,0.199,3.615,0.596
		c0.964,0.397,1.744,0.951,2.34,1.659c0.596,0.709,1.014,1.553,1.255,2.531s0.362,2.063,0.362,3.254v14.465h-3.617v-14.89
		c0-1.361-0.396-2.439-1.19-3.233c-0.794-0.793-1.886-1.191-3.276-1.191c-1.105,0-2.062,0.17-2.871,0.51s-1.482,0.823-2.021,1.446
		c-0.539,0.625-0.943,1.355-1.212,2.191c-0.271,0.836-0.404,1.751-0.404,2.745v12.422h-3.616V54.689H461.457z"/>
	<path fill="#F1F1F1" d="M512.208,84.702c-1.759,0.694-3.53,1.042-5.317,1.042c-2.27,0-4.297-0.418-6.084-1.254
		c-1.786-0.837-3.304-1.964-4.552-3.383c-1.248-1.418-2.198-3.049-2.851-4.893c-0.652-1.843-0.979-3.757-0.979-5.742
		c0-2.212,0.305-4.318,0.915-6.317c0.61-2,1.517-3.75,2.723-5.254c1.205-1.503,2.708-2.702,4.51-3.595
		c1.8-0.894,3.906-1.34,6.317-1.34c1.645,0,3.197,0.191,4.658,0.575c1.46,0.383,2.766,0.985,3.914,1.808
		c1.148,0.823,2.111,1.865,2.893,3.127c0.779,1.262,1.311,2.787,1.596,4.573h-4.042c-0.198-1.163-0.567-2.163-1.106-2.999
		s-1.205-1.524-1.999-2.063c-0.794-0.539-1.695-0.942-2.702-1.212c-1.006-0.269-2.077-0.404-3.211-0.404
		c-1.844,0-3.425,0.369-4.744,1.106c-1.318,0.738-2.396,1.708-3.232,2.914c-0.837,1.206-1.453,2.581-1.851,4.126
		s-0.596,3.126-0.596,4.743c0,1.588,0.227,3.113,0.681,4.573c0.453,1.461,1.12,2.751,2,3.871c0.879,1.12,1.963,2.015,3.254,2.681
		c1.29,0.666,2.787,0.999,4.488,0.999c1.588,0,2.992-0.255,4.211-0.766s2.248-1.212,3.084-2.106
		c0.837-0.893,1.469-1.941,1.894-3.147c0.425-1.205,0.61-2.503,0.554-3.893h-9.699v-3.403h13.314v15.996h-2.553l-1.062-3.787
		C515.441,82.867,513.967,84.008,512.208,84.702z"/>
	<path fill="#F1F1F1" d="M525.098,69.558c0.453-1.404,1.134-2.623,2.041-3.658c0.908-1.035,2.027-1.851,3.361-2.446
		c1.333-0.596,2.864-0.894,4.595-0.894c1.758,0,3.297,0.298,4.616,0.894c1.318,0.596,2.431,1.411,3.339,2.446
		c0.907,1.036,1.588,2.254,2.042,3.658c0.453,1.403,0.681,2.914,0.681,4.53c0,1.617-0.228,3.121-0.681,4.51
		c-0.454,1.391-1.135,2.603-2.042,3.637c-0.908,1.036-2.021,1.845-3.339,2.426c-1.319,0.58-2.858,0.871-4.616,0.871
		c-1.73,0-3.262-0.291-4.595-0.871c-1.334-0.581-2.453-1.39-3.361-2.426c-0.907-1.034-1.588-2.246-2.041-3.637
		c-0.454-1.389-0.682-2.893-0.682-4.51C524.416,72.472,524.644,70.961,525.098,69.558z M528.777,77.641
		c0.354,1.035,0.844,1.9,1.467,2.595c0.624,0.695,1.354,1.228,2.191,1.596c0.836,0.368,1.723,0.553,2.659,0.553
		c0.936,0,1.821-0.185,2.659-0.553c0.836-0.368,1.566-0.9,2.19-1.596c0.624-0.694,1.112-1.56,1.468-2.595
		c0.354-1.035,0.531-2.219,0.531-3.553c0-1.332-0.178-2.516-0.531-3.552c-0.355-1.035-0.844-1.907-1.468-2.616
		c-0.624-0.708-1.354-1.248-2.19-1.617c-0.838-0.368-1.724-0.553-2.659-0.553c-0.937,0-1.823,0.185-2.659,0.553
		c-0.837,0.369-1.567,0.908-2.191,1.617c-0.623,0.709-1.113,1.582-1.467,2.616c-0.355,1.036-0.531,2.22-0.531,3.552
		C528.246,75.422,528.422,76.605,528.777,77.641z"/>
	<path fill="#F1F1F1" d="M549.516,69.558c0.453-1.404,1.134-2.623,2.041-3.658c0.908-1.035,2.027-1.851,3.361-2.446
		c1.333-0.596,2.864-0.894,4.595-0.894c1.758,0,3.297,0.298,4.616,0.894c1.318,0.596,2.431,1.411,3.339,2.446
		c0.907,1.036,1.588,2.254,2.042,3.658c0.453,1.403,0.681,2.914,0.681,4.53c0,1.617-0.228,3.121-0.681,4.51
		c-0.454,1.391-1.135,2.603-2.042,3.637c-0.908,1.036-2.021,1.845-3.339,2.426c-1.319,0.58-2.858,0.871-4.616,0.871
		c-1.73,0-3.262-0.291-4.595-0.871c-1.334-0.581-2.453-1.39-3.361-2.426c-0.907-1.034-1.588-2.246-2.041-3.637
		c-0.454-1.389-0.682-2.893-0.682-4.51C548.834,72.472,549.062,70.961,549.516,69.558z M553.195,77.641
		c0.354,1.035,0.844,1.9,1.467,2.595c0.624,0.695,1.354,1.228,2.191,1.596c0.836,0.368,1.723,0.553,2.659,0.553
		c0.936,0,1.821-0.185,2.659-0.553c0.836-0.368,1.566-0.9,2.19-1.596c0.624-0.694,1.112-1.56,1.468-2.595
		c0.354-1.035,0.531-2.219,0.531-3.553c0-1.332-0.178-2.516-0.531-3.552c-0.355-1.035-0.844-1.907-1.468-2.616
		c-0.624-0.708-1.354-1.248-2.19-1.617c-0.838-0.368-1.724-0.553-2.659-0.553c-0.937,0-1.823,0.185-2.659,0.553
		c-0.837,0.369-1.567,0.908-2.191,1.617c-0.623,0.709-1.113,1.582-1.467,2.616c-0.355,1.036-0.531,2.22-0.531,3.552
		C552.664,75.422,552.84,76.605,553.195,77.641z"/>
	<path fill="#F1F1F1" d="M590.95,91.275c-1.646,1.786-4.227,2.68-7.742,2.68c-1.021,0-2.063-0.113-3.127-0.34
		c-1.063-0.229-2.028-0.596-2.893-1.106c-0.865-0.511-1.582-1.177-2.148-1.999c-0.567-0.823-0.88-1.83-0.937-3.021h3.616
		c0.028,0.652,0.234,1.205,0.617,1.66c0.383,0.453,0.851,0.822,1.403,1.105c0.554,0.283,1.155,0.489,1.809,0.617
		c0.652,0.127,1.276,0.191,1.872,0.191c1.19,0,2.197-0.207,3.02-0.617c0.822-0.411,1.503-0.979,2.042-1.701
		c0.539-0.724,0.929-1.596,1.17-2.617c0.241-1.021,0.362-2.141,0.362-3.36V81.32h-0.085c-0.625,1.361-1.567,2.361-2.829,2.999
		c-1.263,0.638-2.603,0.958-4.021,0.958c-1.646,0-3.077-0.299-4.297-0.895s-2.24-1.396-3.062-2.402
		c-0.823-1.008-1.439-2.184-1.851-3.531s-0.617-2.771-0.617-4.275c0-1.305,0.171-2.645,0.511-4.021
		c0.34-1.375,0.907-2.623,1.701-3.744c0.794-1.12,1.844-2.042,3.148-2.765c1.304-0.723,2.907-1.085,4.808-1.085
		c1.389,0,2.665,0.305,3.828,0.915s2.07,1.524,2.723,2.744h0.043V63.07h3.403v20.122C593.418,86.793,592.595,89.488,590.95,91.275z
		 M586.335,81.385c0.836-0.496,1.51-1.149,2.021-1.957c0.51-0.809,0.886-1.723,1.127-2.744s0.361-2.042,0.361-3.062
		c0-0.965-0.113-1.915-0.34-2.852c-0.228-0.935-0.589-1.779-1.085-2.531c-0.496-0.751-1.142-1.354-1.936-1.808
		s-1.759-0.681-2.893-0.681c-1.163,0-2.156,0.22-2.979,0.659c-0.822,0.44-1.496,1.028-2.021,1.766
		c-0.524,0.738-0.908,1.588-1.148,2.552c-0.241,0.964-0.361,1.972-0.361,3.021c0,0.993,0.099,1.985,0.298,2.979
		c0.198,0.992,0.538,1.893,1.021,2.701c0.482,0.808,1.12,1.461,1.915,1.957c0.793,0.496,1.786,0.744,2.978,0.744
		S585.498,81.881,586.335,81.385z"/>
	<path fill="#F1F1F1" d="M602.691,54.689v30.375h-3.616V54.689H602.691z"/>
	<path fill="#F1F1F1" d="M623.876,83.66c-1.646,1.248-3.716,1.871-6.211,1.871c-1.759,0-3.283-0.283-4.573-0.85
		c-1.291-0.567-2.376-1.361-3.255-2.383s-1.539-2.24-1.978-3.658c-0.44-1.418-0.688-2.963-0.745-4.637
		c0-1.674,0.256-3.205,0.766-4.595c0.511-1.389,1.227-2.595,2.148-3.616s2.014-1.815,3.276-2.382
		c1.261-0.567,2.644-0.851,4.147-0.851c1.957,0,3.58,0.404,4.871,1.212c1.29,0.809,2.325,1.837,3.105,3.084
		c0.779,1.248,1.318,2.609,1.616,4.084c0.298,1.476,0.418,2.879,0.361,4.212h-16.463c-0.028,0.964,0.085,1.879,0.34,2.744
		c0.256,0.865,0.666,1.631,1.234,2.297c0.566,0.666,1.29,1.198,2.169,1.595c0.879,0.397,1.915,0.596,3.105,0.596
		c1.532,0,2.787-0.354,3.766-1.063c0.978-0.709,1.623-1.787,1.936-3.232h3.573C626.584,80.555,625.521,82.412,623.876,83.66z
		 M623.004,69.537c-0.327-0.766-0.766-1.425-1.319-1.979c-0.553-0.553-1.205-0.992-1.957-1.318
		c-0.751-0.326-1.581-0.489-2.488-0.489c-0.936,0-1.78,0.164-2.531,0.489c-0.752,0.326-1.397,0.773-1.936,1.34
		c-0.539,0.568-0.965,1.227-1.276,1.978c-0.312,0.752-0.496,1.553-0.553,2.403h12.635C623.521,71.11,623.329,70.303,623.004,69.537z
		"/>
</g>
<polygon id="Plus" fill="#FFFFFF" points="118,51 106,51 106,39 103,39 103,51 89,51 89,55 103,55 103,68 106,68 106,55 118,55 "/>
<path id="g" fill="#FFFFFF" d="M75.596,76.115c-1.799-1.273-5.24-4.371-5.24-6.191c0-2.133,0.61-3.184,3.82-5.692
	c3.292-2.572,5.622-6.359,5.622-10.564c0-5.006-2.231-9.667-6.415-11.667h6.309l4.454-3c0,0-14.927,0-19.901,0
	c-8.922,0-17.319,6.822-17.319,14.651c0,8.001,6.083,14.49,15.159,14.49c0.631,0,1.245,0.003,1.845-0.04
	c-0.589,1.128-1.01,2.407-1.01,3.725c0,2.223,1.196,4.029,2.71,5.501c-1.143,0-2.247,0.035-3.451,0.035
	c-11.05,0-19.557,7.04-19.557,14.338c0,7.187,9.325,11.685,20.376,11.685c12.599,0,19.557-7.148,19.557-14.337
	C82.554,83.285,80.854,79.833,75.596,76.115z M64.965,66.144c-5.129-0.153-10.001-5.736-10.886-12.468
	c-0.886-6.733,2.553-11.887,7.679-11.734c5.126,0.154,10,5.557,10.885,12.289C73.528,60.964,70.09,66.297,64.965,66.144z
	 M62.955,100.207c-7.638,0-13.153-4.835-13.153-10.643c0-5.693,6.842-10.432,14.481-10.35c1.782,0.02,3.442,0.307,4.951,0.795
	c4.146,2.883,7.121,4.512,7.96,7.799c0.157,0.666,0.244,1.352,0.244,2.052C77.438,95.668,73.694,100.207,62.955,100.207z"/>
</svg>
